{"title":"King Kong vs Godzilla (1962) Original Japanese version","uid":5614379,"size":1744959834,"categoryP":"video","categoryS":"movies","magnet":"?xt=urn:btih:b280fe31ea4358689f0bfd20aa30a772f6775859&amp;dn=King+Kong+vs+Godzilla+%281962%29+Original+Japanese+version&amp;tr=udp%3A%2F%2Ftracker.openbittorrent.com%3A80&amp;tr=udp%3A%2F%2Fopen.demonii.com%3A1337&amp;tr=udp%3A%2F%2Ftracker.coppersurfer.tk%3A6969&amp;tr=udp%3A%2F%2Fexodus.desync.com%3A6969","seeders":2,"leechers":0,"uploader":"Beebe85","files":-1,"time":1276010988,"description":"King Kong vs Godzilla (1962) Toho Original Japanese version. DVDRip \n &lt;a href=&quot;\nhttp://www.imdb.com/title/tt0056142/&quot; rel=&quot;nofollow&quot; target=&quot;_NEW&quot;&gt;\nhttp://www.imdb.com/title/tt0056142/&lt;/a&gt;\n\n\n\nGeneral\nComplete name                    : King Kong vs Godzilla (1962)KONGVSGODZILLA.Title2.avi\nFormat                           : AVI\nFormat/Info                      : Audio Video Interleave\nFile size                        : 1.62 GiB\nDuration                         : 1h 37mn\nOverall bit rate                 : 2 396 Kbps\nMovie name                       : KONGVSGODZILLA.Title2.DVDRip\nWriting application              : Lavf52.33.0\nOriginal source form/Name        : KONGVSGODZILLA\n\nVideo\nID                               : 0\nFormat                           : AVC\nFormat/Info                      : Advanced Video Codec\nFormat profile                   : &lt;a class=&quot;__cf_email__&quot; href=&quot;/cdn-cgi/l/email-protection&quot; data-cfemail=&quot;20624153454c494e45606c110e13&quot;&gt;[email&amp;#160;protected]&lt;/a&gt;&lt;script cf-hash='f9e31' type=&quot;text/javascript&quot;&gt;\n/* &lt;![CDATA[ */!function(){try{var t=&quot;currentScript&quot;in document?document.currentScript:function(){for(var t=document.getElementsByTagName(&quot;script&quot;),e=t.length;e--;)if(t[e].getAttribute(&quot;cf-hash&quot;))return t[e]}();if(t&amp;&amp;t.previousSibling){var e,r,n,i,c=t.previousSibling,a=c.getAttribute(&quot;data-cfemail&quot;);if(a){for(e=&quot;&quot;,r=parseInt(a.substr(0,2),16),n=2;a.length-n;n+=2)i=parseInt(a.substr(n,2),16)^r,e+=String.fromCharCode(i);e=document.createTextNode(e),c.parentNode.replaceChild(e,c)}}}catch(u){}}();/* ]]&gt; */&lt;/script&gt;\nFormat settings, CABAC           : No\nFormat settings, ReFrames        : 1 frame\nCodec ID                         : H264\nDuration                         : 1h 37mn\nBit rate                         : 2000 Kbps\nWidth                            : 800 pixels\nHeight                           : 342 pixels\nDisplay aspect ratio             : 2.35:1\nFrame rate                       : 29.970 fps\nResolution                       : 24 bits\nColorimetry                      : 4:2:0\nScan type                        : Progressive\nBits/(Pixel*Frame)               : 0.244\nStream size                      : 1.36 GiB (83%)\nWriting library                  : x264 core 67\n\nAudio\nID                               : 1\nFormat                           : AC-3\nFormat/Info                      : Audio Coding 3\nCodec ID                         : 2000\nDuration                         : 1h 37mn\nBit rate mode                    : Constant\nBit rate                         : 384 Kbps\nChannel(s)                       : 6 channels\nChannel positions                : Front: L C R, Surround: L R, LFE\nSampling rate                    : 48.0 KHz\nStream size                      : 266 MiB (16%)\nAlignment                        : Aligned on interleaves\nInterleave, duration             : 32 ms (0.96 video frame)\nInterleave, preload duration     : 32 ms\n\nEnglish Subtitles\n\n\n\n\n","torrent":{"xt":"urn:btih:b280fe31ea4358689f0bfd20aa30a772f6775859","amp;dn":"King+Kong+vs+Godzilla+%281962%29+Original+Japanese+version","amp;tr":["udp%3A%2F%2Ftracker.openbittorrent.com%3A80","udp%3A%2F%2Fopen.demonii.com%3A1337","udp%3A%2F%2Ftracker.coppersurfer.tk%3A6969","udp%3A%2F%2Fexodus.desync.com%3A6969"],"infoHash":"b280fe31ea4358689f0bfd20aa30a772f6775859","infoHashBuffer":{"type":"Buffer","data":[178,128,254,49,234,67,88,104,159,11,253,32,170,48,167,114,246,119,88,89]},"announce":[],"urlList":[]}}